
<svg xmlns="http://www.w3.org/2000/svg" xmlns:xlink="http://www.w3.org/1999/xlink" viewBox="0 0 383.34 154.8"><defs><style>.cls-1{fill:url(#Gradient_bez_nazwy_159);}.cls-2{fill:#fff;}.cls-3{fill:#1d71b8;}</style><linearGradient id="Gradient_bez_nazwy_159" y1="45.06" x2="391.71" y2="45.06" gradientUnits="userSpaceOnUse"><stop offset="0.06" stop-color="#3eb5e9"/><stop offset="0.12" stop-color="#3ba2db"/><stop offset="0.23" stop-color="#3787c7"/><stop offset="0.33" stop-color="#3474b9"/><stop offset="0.44" stop-color="#3369b1"/><stop offset="0.55" stop-color="#3265ae"/><stop offset="0.74" stop-color="#385ea8"/><stop offset="0.93" stop-color="#294898"/><stop offset="1" stop-color="#33338a"/></linearGradient></defs><g id="Warstwa_2" data-name="Warstwa 2"><g id="Warstwa_1-2" data-name="Warstwa 1"><path class="cls-1" d="M379.2,60.25a506.8,506.8,0,0,0-91.06-23.16c-30.75-4.74-61.72-6.64-92.08-4.76a328.72,328.72,0,0,0-87.79,17.11A272.38,272.38,0,0,0,32.21,90.13L0,39.5A325.27,325.27,0,0,1,97,5.57a367.16,367.16,0,0,1,99.69-3.84,453.76,453.76,0,0,1,95.16,19.89A514.69,514.69,0,0,1,379.7,59.15Z"/><path class="cls-2" d="M383.34,60.17C268.45,9,125.34-4.92,15.57,65.79L15,64.94C125.15-5.59,268.47,8.61,383.34,60.17Z"/><path class="cls-3" d="M116.28,125.23a22.11,22.11,0,0,1-8.76-9.18,29.18,29.18,0,0,1-3.1-13.74V82.19a29.25,29.25,0,0,1,3.1-13.75,22.23,22.23,0,0,1,8.76-9.18,28,28,0,0,1,26.17,0,22.25,22.25,0,0,1,8.77,9.18,29.25,29.25,0,0,1,3.1,13.75v20.12a29.18,29.18,0,0,1-3.1,13.74,22.13,22.13,0,0,1-8.77,9.18,28,28,0,0,1-26.17,0Zm20.83-8.54a13.28,13.28,0,0,0,5.17-5.62,18.48,18.48,0,0,0,1.83-8.42V81.85a18.55,18.55,0,0,0-1.83-8.43,13.31,13.31,0,0,0-5.17-5.61,16.12,16.12,0,0,0-15.48,0,13.34,13.34,0,0,0-5.18,5.61,18.55,18.55,0,0,0-1.83,8.43v20.8a18.48,18.48,0,0,0,1.83,8.42,13.3,13.3,0,0,0,5.18,5.62,16.19,16.19,0,0,0,15.48,0Z"/><path class="cls-3" d="M175.08,99.57q-3.32,3-3.32,8.55a10.44,10.44,0,0,0,3.54,8.42q3.54,3,10,3a17,17,0,0,0,10.48-3.27,20,20,0,0,0,6.64-9.5,44,44,0,0,0,2.27-15h9.47q0,11.63-3.64,19.85a27.2,27.2,0,0,1-10.62,12.55q-7,4.32-16.79,4.32a24.87,24.87,0,0,1-11.35-2.39,16.38,16.38,0,0,1-7.18-7,22.84,22.84,0,0,1-2.47-11q0-8.7,4.79-13.92t13.52-6l4.1,8.39Q178.4,96.54,175.08,99.57Zm4.69,0A44.52,44.52,0,0,1,174,92.1a34.13,34.13,0,0,1-3.67-8A28.68,28.68,0,0,1,169,75.7q0-9.33,5-14.43t14.06-5.11q9,0,14,4.91T207,75v1h-10V75a9.15,9.15,0,0,0-2.34-6.71,8.92,8.92,0,0,0-6.64-2.37,8.73,8.73,0,0,0-6.72,2.56Q179,71,179,75.7a20.16,20.16,0,0,0,.92,5.85,26.56,26.56,0,0,0,2.74,6A33.3,33.3,0,0,0,187,93.22l32.47,34.53H206.82Z"/><path class="cls-3" d="M223.82,56.75h9.91v71h-9.91Zm5.86,61.77h19.24q7.56,0,11-2.88a10,10,0,0,0,3.47-8.11v-.15a14.23,14.23,0,0,0-1.25-6.2,8.65,8.65,0,0,0-3.93-4,15,15,0,0,0-6.88-1.39H229.68v-9h21.68q5.52,0,8.32-2.59t2.81-7.67c0-3.54-1-6.2-3.12-8S254.16,66,250,66H229.68V56.75H251.8a25.42,25.42,0,0,1,11.52,2.34,15.64,15.64,0,0,1,6.93,6.64A21.53,21.53,0,0,1,272.55,76a16.66,16.66,0,0,1-1.42,6.86,14.14,14.14,0,0,1-4.32,5.47,16.25,16.25,0,0,1-7.2,3.05,15.61,15.61,0,0,1,7.42,3,16,16,0,0,1,4.79,6,18.58,18.58,0,0,1,1.66,7.81v.15a20,20,0,0,1-2.54,10.16,17.07,17.07,0,0,1-7.28,6.78,24.09,24.09,0,0,1-11,2.4H229.68Z"/></g></g></svg>